<svg xmlns="http://www.w3.org/2000/svg" viewBox="0 0 328 110">
<!-- SVG created with Arrow, by QuiverAI (https://quiver.ai) -->
  <style type="text/css">.cls-0 {fill:#FFFFFF;fill-opacity:0.75;}
.cls-1 {fill:none;stroke:#3378F4;stroke-width:0.48;stroke-linecap:round;stroke-linejoin:round;stroke-miterlimit:10.0012;}
.cls-2 {fill:none;stroke:#FF78A9;stroke-width:0.48;stroke-linecap:round;stroke-linejoin:round;stroke-miterlimit:10.0012;}
.cls-3 {fill:none;stroke:#28AE80;stroke-width:0.48;stroke-linecap:round;stroke-linejoin:round;stroke-miterlimit:10.0012;}
.cls-4 {fill:none;stroke:#F6AF2C;stroke-width:0.48;stroke-linecap:round;stroke-linejoin:round;stroke-miterlimit:10.0012;}
.cls-5 {fill:none;stroke:#172230;stroke-width:0.48;stroke-linecap:round;stroke-linejoin:round;stroke-miterlimit:10.0012;}
.cls-6 {fill:none;stroke:#28AE80;stroke-width:0.44;stroke-linecap:round;stroke-linejoin:round;stroke-miterlimit:10.0012;}
.cls-7 {fill:none;stroke:#3378F4;stroke-width:0.44;stroke-linecap:round;stroke-linejoin:round;stroke-miterlimit:10.0012;}
.cls-8 {fill:none;stroke:#F6AF2C;stroke-width:0.44;stroke-linecap:round;stroke-linejoin:round;stroke-miterlimit:10.0012;}
.cls-9 {fill:none;stroke:#FF78A9;stroke-width:0.44;stroke-linecap:round;stroke-linejoin:round;stroke-miterlimit:10.0012;}
.cls-10 {fill:none;stroke:#172230;stroke-width:0.44;stroke-linecap:round;stroke-linejoin:round;stroke-miterlimit:10.0012;}
.cls-11 {fill:#28AE80;}
.cls-12 {fill:none;stroke:#28AE80;stroke-width:0.48;stroke-linecap:round;stroke-linejoin:round;stroke-miterlimit:10.0012;}
.cls-13 {fill:none;stroke:#3378F4;stroke-width:0.44;stroke-linecap:round;stroke-linejoin:round;stroke-miterlimit:10.0012;}
.cls-14 {fill:none;stroke:#F6AF2C;stroke-width:0.44;stroke-linecap:round;stroke-linejoin:round;stroke-miterlimit:10.0012;}
.cls-15 {fill:none;stroke:#172230;stroke-width:0.44;stroke-linecap:round;stroke-linejoin:round;stroke-miterlimit:10.0012;}
.cls-16 {fill:#F6AF2C;}
.cls-17 {fill:none;stroke:#FF78A9;stroke-width:0.44;stroke-linecap:round;stroke-linejoin:round;stroke-miterlimit:10.0012;}
.cls-18 {fill:none;stroke:#FF78A9;stroke-width:0.44;stroke-linecap:round;stroke-linejoin:round;stroke-miterlimit:10.0012;}
.cls-19 {fill:none;stroke:#28AE80;stroke-width:0.44;stroke-linecap:round;stroke-linejoin:round;stroke-miterlimit:10.0012;}
.cls-20 {fill:#3378F4;}
.cls-21 {fill:none;stroke:#172230;stroke-width:0.44;stroke-linecap:round;stroke-linejoin:round;}
.cls-22 {fill:none;stroke:#F6AF2C;stroke-width:0.44;stroke-linecap:round;stroke-linejoin:round;}
.cls-23 {fill:none;stroke:#3378F4;stroke-width:0.44;stroke-linecap:round;stroke-linejoin:round;}
.cls-24 {fill:none;stroke:#FF78A9;stroke-width:0.44;stroke-linecap:round;stroke-linejoin:round;}</style>
  <path class="cls-1" d="m168.6 19.3c-2.6-2.3-6.1-2.3-8.6-0.9-2.1 1.2-3.6 3.3-4.1 6-2.2 0.1-4.6 1.5-4.7 4.7-6.2 0.4-5.5 9.1-0.5 9.1h3.4-0.2 0.2-0.2"/>
  <path class="cls-1" d="m170.8 24.4c2.2 0 3.6 1.7 3.6 4.3 6.6 0 7.1 9.5 0 9.6h-3.4"/>
  <path class="cls-1" d="m156.1 24.4c0.4-3.5 3-6.6 7.4-6.8 4.3-0.1 6.6 3 6.8 6.8"/>
  <path class="cls-2" d="m154.7 45.8h15.3c0.9 0 1.6 0.7 1.6 1.6v2.6c0 0.9-0.7 1.6-1.6 1.6h-15.3c-0.9 0-1.6-0.7-1.6-1.6v-2.6c0-0.9 0.7-1.6 1.6-1.6z"/>
  <path class="cls-3" d="m154.7 53.4h15.4c0.9 0 1.6 0.7 1.6 1.6v2.3c0 0.9-0.7 1.6-1.6 1.6h-15.4c-0.9 0-1.6-0.7-1.6-1.6v-2.3c0-0.9 0.7-1.6 1.6-1.6z"/>
  <path class="cls-3" d="m154.7 60.3h15.3c0.9 0 1.6 0.7 1.6 1.6v2.5c0 0.9-0.7 1.6-1.6 1.6h-15.3c-0.9 0-1.6-0.7-1.6-1.6v-2.5c0-0.9 0.7-1.6 1.6-1.6z"/>
  <line class="cls-2" x1="155.7" x2="160.6" y1="48.4" y2="48.4"/>
  <line class="cls-3" x1="155.7" x2="160.4" y1="55.9" y2="55.9"/>
  <line class="cls-4" x1="155.7" x2="160.2" y1="57.1" y2="57.1"/>
  <line class="cls-4" x1="161.7" x2="161.7" y1="59.9" y2="59.9"/>
  <line class="cls-4" x1="155.4" x2="160.6" y1="59.9" y2="59.9"/>
  <circle class="cls-1" cx="166.8" cy="48.5" r=".7"/>
  <circle class="cls-1" cx="168.9" cy="48.5" r=".6"/>
  <circle class="cls-2" cx="166.6" cy="55.9" r=".7"/>
  <circle class="cls-5" cx="168.9" cy="55.9" r=".6"/>
  <circle class="cls-3" cx="166.6" cy="63.1" r=".7"/>
  <circle class="cls-3" cx="168.9" cy="63.1" r=".7"/>
  <circle class="cls-5" cx="156.3" cy="63.1" r=".7"/>
  <circle class="cls-5" cx="158.2" cy="63.1" r=".7"/>
  <circle class="cls-5" cx="159.9" cy="63" r=".6"/>
  <polyline class="cls-2" points="157.6 35.8 159 33.9 161.1 36.2"/>
  <polyline class="cls-3" points="166.4 34.3 166.3 41.5 168.1 39.7"/>
  <line class="cls-2" x1="158.8" x2="158.8" y1="34.3" y2="42.1"/>
  <line class="cls-3" x1="166.3" x2="167.8" y1="39.8" y2="41.5"/>
  <path class="cls-6" d="m97.3 25.9c-5.1-0.3-10.7 3.1-12.2 8.9"/>
  <path class="cls-5" d="m97.1 25.8c-3.5-0.5-6.5 0.2-8.7 0.9"/>
  <circle class="cls-5" cx="85.6" cy="26.5" r="1"/>
  <circle class="cls-6" cx="84.7" cy="36.3" r="1.2"/>
  <path class="cls-6" d="m99.5 26.2c5.1 0.3 9.6 5.2 9.5 12.4"/>
  <path class="cls-3" d="m99.6 26c2.9 0.1 7.1 1.8 9.3 3"/>
  <circle class="cls-5" cx="110.9" cy="29.8" r="1"/>
  <circle class="cls-6" cx="108.6" cy="39.9" r="1.2"/>
  <circle class="cls-5" cx="98.7" cy="25.7" r="1.2"/>
  <path class="cls-1" d="m97.8 28.6-6.2 8.7 2.3 3.5 5.5 2.1 3-4.1-3.8-9.8-1.4 6.9"/>
  <circle class="cls-1" cx="97" cy="37.2" r="1.2"/>
  <path class="cls-5" d="m93.1 42.3-0.5 2.6 6.5 0.8 0.3-2.6-1.5-0.2"/>
  <path class="cls-7" d="m93.6 57.2 11.6-0.3c0.7 0 1.4 0.3 1.2 1.5l-5.6 20.7c-0.2 0.5-0.4 1-1.4 0.9l-18.5-2c-0.8-0.1-1.2-0.3-0.8-1.4l3.7-12.3"/>
  <path class="cls-8" d="m88.1 58.1c1.9-1.7 3.9-0.1 3.3-2.1-0.8-2.7-3.3-2.3-4.8 0.7"/>
  <path class="cls-9" d="m94.2 53.6 6.4-0.1c2.3 0 3.9 0.1 3.9 0.1"/>
  <path class="cls-9" d="m94.7 51.4c3.7-0.3 6.7-0.1 6.9-2.2 0 0 0.6 1.4 1.3 1.5"/>
  <path class="cls-4" d="m34.5 56.8c-8.1-0.4-14.7 11.8-11.4 16.8 1 1.6 2.5 2.3 4.1 2.3"/>
  <path class="cls-3" d="m32.6 68.7 0.4-1.3 1-3.3"/>
  <path class="cls-3" d="m28.3 68.7c2.1-0.6 4.8-0.1 6.3 1.4"/>
  <path class="cls-4" d="m35.8 58.5c1.6 2.1 3.4 3.2 5.3 3.2l1-2"/>
  <path class="cls-3" d="m39.2 57.7c4.3 3.7 12.1 1.3 10.9-7.3"/>
  <path class="cls-1" d="m36.9 51c-3.7-1-3.4 3.5-0.4 3"/>
  <path class="cls-1" d="m35.8 49.9c-3.7 0.5-1.8-6.5 1.4-5.1"/>
  <path class="cls-1" d="m34.3 45.4c-0.2-1.2 1.7-2.8 3.3-2.4 0.2-2.5 3.5-3.5 5.1-1.8 1.9-1 3.7-0.6 4.3 0.8 2.1-1.1 3.5-0.1 3.1 1.4 2.4 0.2 3.6 3 1.8 3.6 1.8 0.8 0.7 3-0.8 3"/>
  <path class="cls-3" d="m36.1 46.4 1.2-0.6"/>
  <path class="cls-3" d="m38.3 43.6c0.6-2.1 3.1-2.1 3.1-1.5"/>
  <path class="cls-3" d="m34.4 48.5 2.5-0.7 0.7-0.3"/>
  <path class="cls-3" d="m35.1 49.9 2.3-0.7 0.7-1.1"/>
  <path class="cls-3" d="m39.9 46.9 1 1c1.3 0.7 3.1 0.5 3.6-1 1 1.2 3.1 1 3.6-1.2 0.4 1.2 1.4 1.2 1.8 1 0 0.9 0.7 1.2 1.2 1.2"/>
  <path class="cls-4" d="m36.5 50.9c1.7 0.1 1.9 1.7 1.5 2.7"/>
  <path class="cls-5" d="m43 55.6c0.4 1 2.4 1.3 2.5 0"/>
  <path class="cls-5" d="m43.9 51.4-0.2 1.2"/>
  <path class="cls-5" d="m47.6 51.9-0.1 1.2"/>
  <path class="cls-4" d="m37.2 55.9-0.1 0.5"/>
  <path class="cls-8" d="m45.4 60.6 2 1"/>
  <path class="cls-10" d="m39.9 76.5 2.8-11.6c0.3-0.9 0.7-1.4 1.9-1.4l14.6-0.6c1 0 1.7 0.6 1.3 1.6l-3.1 11.5c-0.3 1-0.8 1.4-1.5 1.4l-16.3 1-8.2-1.9c-0.9-0.5-0.4-1.4 0.3-1.4l6.2 1.3c1.1 0.1 1-0.7 0.7-1.4-0.4-1.1-1.2-1.5-2.1-0.6"/>
  <polyline class="cls-5" points="47.9 68.9 46.2 70.4 47.5 71.7"/>
  <polyline class="cls-5" points="52.9 69.1 54.5 70.6 52.9 72"/>
  <line class="cls-5" x1="51.4" x2="49" y1="67.6" y2="73.4"/>
  <path class="cls-9" d="m23.6 59.5c-4.4 0-7.7 2.9-7.5 8.4"/>
  <path class="cls-9" d="m19.2 71c-2.7 2.1-7.2 2.1-9.7-1"/>
  <path class="cls-9" d="m10.5 65.5c0.4 1.9 1.5 3.6 3 4.4"/>
  <path class="cls-1" d="m14.1 75.6c2.9-0.1 5.3 1.3 5.5 2.3"/>
  <path class="cls-1" d="m19.6 78c2.1-0.9 4.5 0.5 4.5 2.5 0.3 2.9 3.8 4.9 8.9 3.6 3.5-1 5.9-1.1 6.9 1.3 1.2 1.1 4.6 1.5 8.2-0.5 3.1-1.9 4.5-2.9 6.4-2.8"/>
  <path class="cls-6" d="m20.7 68"/>
  <path class="cls-3" d="m18.6 69.5c-0.5-2.5 0.8-5.6 3-6.1"/>
  <path class="cls-1" d="m19.7 79.1c-0.8 2.4-3.3 0.8-0.8-1.1"/>
  <path class="cls-4" d="m50.4 89.4-2.7 0.7"/>
  <line class="cls-4" x1="52" x2="50.5" y1="91.6" y2="93.1"/>
  <line class="cls-4" x1="50.7" x2="51.1" y1="87.1" y2="86.9"/>
  <line class="cls-4" x1="52.9" x2="52.6" y1="89.6" y2="89.9"/>
  <path class="cls-8" d="m14.4 56.6c-1.2 0.5-1 2.4-1.2 3.3-0.2-1.7-0.6-3-2-3.3 1.3-0.2 2.2-1.1 2.3-3.1 0.1 1.9 0.9 2.7 2.1 3.1"/>
  <path class="cls-8" d="m45.6 35.5 1.8-1.6"/>
  <path class="cls-9" d="m31.5 35c1.2-3.6 5-5.1 7.5-2.6"/>
  <path class="cls-9" d="m30 41.1c-0.5-1.7 1.4-3.5 2.6-2.5 1.3 1.3 2.4 0 1.6-1.5-0.6-1.5 2-3.5 3.4-1"/>
  <path class="cls-9" d="m39.2 35.9c0.5-1 2.7-1.7 3.8 0.2"/>
  <path class="cls-8" d="m44 30.6 2.2-0.2"/>
  <path class="cls-8" d="m44.5 24.6 2.1 1.3"/>
  <path class="cls-9" d="m48.6 20.1 1.3 2.8"/>
  <path class="cls-9" d="m54.6 19.5-0.1 2.9"/>
  <path class="cls-9" d="m59.7 22.6-1.6 1.5"/>
  <path class="cls-8" d="m61.7 27.6-2-0.1"/>
  <path class="cls-8" d="m57.2 31c2.4-4.1-0.8-6.9-4-6.5-4.2 0.4-6.3 5.9-2.5 8.2l1.7 1.2 0.5 1.2 3.6-0.9 0.1-1.2 0.6-2z"/>
  <line class="cls-8" x1="52.4" x2="56.5" y1="36.1" y2="35.1"/>
  <line class="cls-5" x1="52.9" x2="56.6" y1="37.4" y2="36.6"/>
  <path class="cls-5" d="m54 38.1c0.5 0.8 2.1 0.4 2.1-0.5"/>
  <path class="cls-8" d="m52.7 30c0 1 1.3 0.6 1.2-0.4 0.2 1 1.6 0.8 1.2-0.1"/>
  <polyline class="cls-8" points="53.1 33.4 53 30.7 53.9 30.4 54.6 30.2 55.2 33.9"/>
  <path class="cls-4" d="m54.6 58 0.9-1.5-0.4-0.9 2.3-2.6"/>
  <path class="cls-9" d="m54.5 54 1.1-2.5 0.6 0.5 1.4 0.6-1 1"/>
  <path class="cls-9" d="m56.5 50.7 1.4 1.8"/>
  <path class="cls-6" d="m19.6 52.9c1.3 0.7 3.3 0.7 4.1 0.5l1.9 1.7-0.2-2c2 0 3.8-1.6 3.8-4.6 0-3.6-1.7-6.1-6.1-6-7.1-0.1-7.4 7.4-3.5 10.4z"/>
  <path class="cls-8" d="m20.1 46.4c-0.5 0.7-0.2 1.7 0.5 1.7-1 0.3-0.7 1.5 0 1.5"/>
  <path class="cls-8" d="m26.2 46.4c0.5 0.7 0.3 1.7-0.5 1.7 1 0.3 0.8 1.5 0 1.5"/>
  <circle class="cls-5" cx="21.4" cy="48.5" r=".2"/>
  <circle class="cls-5" cx="22.9" cy="48.6" r=".2"/>
  <circle class="cls-5" cx="24.2" cy="48.5" r=".2"/>
  <circle class="cls-6" cx="20.4" cy="55.6" r=".2"/>
  <path class="cls-1" d="m33.5 88 0.9-0.6 0.8 2 0.2-1.5h0.1l0.1 1"/>
  <path class="cls-4" d="m41.7 82.1 0.3 0.4"/>
  <line class="cls-4" x1="43" x2="43.4" y1="82.4" y2="82.5"/>
  <path class="cls-8" d="m61 42.4c-0.4-3 2.6-7.2 5.5-6.3"/>
  <path class="cls-9" d="m64.1 47c-1.1-1-1.5-2.5-0.4-3.4-1.3-2.1 1-4.7 2.9-4.4 1-1.8 3-1.2 3.4-0.2 2.6-2.9 6.6-0.6 4.6 3"/>
  <path class="cls-1" d="m67.6 48.4c0.3-2.8 3.1-6 5.3-5.8"/>
  <path class="cls-9" d="m64.6 47c0.5 0.6 1.4 1 2.1 0.9"/>
  <path class="cls-8" d="m68.4 35.6 3.1-0.5"/>
  <path class="cls-1" d="m66 31.4c0-2.2 2-3.9 3-2.3 1.5 2.6 2.9 0 4.5-0.6 1.1-0.1 2.2 1.1 2.2 1.6"/>
  <path class="cls-1" d="m73.5 32.4c1.1-0.8 2.6-0.9 3.5 0.1 0.6 0.5 1.4-0.5 2.2-0.4"/>
  <path class="cls-4" d="m67.7 51.6c-1.2 1.9 0.9 4.8 3.2 3"/>
  <path class="cls-9" d="m69.6 51.5 1.9-0.8 1.9-2.6"/>
  <path class="cls-9" d="m76 45.4c0.9 1.6 2.6 3 4.1 2.2"/>
  <path class="cls-9" d="m77.9 45.1 1.7 1.5c1 0.9 2 1 2.4 0.4"/>
  <path class="cls-9" d="m81.9 45.9c0.6 0.6 1.1 1.6 0.6 2"/>
  <path class="cls-4" d="m70.5 55.6 1 1.8"/>
  <path class="cls-4" d="m73.6 58.1c4 3.4 10.8-0.2 10.4-5.6"/>
  <path class="cls-9" d="m73.1 60.4c1.9 0.7 4.6 0.2 4.8-0.8"/>
  <path class="cls-6" d="m70.2 58.9 1.3 2c1.7 2.1 5.2 2.2 6.1 0.2"/>
  <path class="cls-1" d="m69.4 58.9c-4 0.6-6.8 6.6-6 12.2"/>
  <path class="cls-9" d="m63.4 71c0.8 5.7 7.3 5.1 10.6 2.5"/>
  <path class="cls-8" d="m70.4 64.6-0.5 4.3"/>
  <path class="cls-9" d="m67.9 69.1c1.5-0.6 3.7-0.6 5.6-0.1l2.6-1.9"/>
  <path class="cls-8" d="m76.4 73.9-1 2.7"/>
  <path class="cls-9" d="m73.2 69.1c-1.6 1.5 0 4.4 1.8 4"/>
  <path class="cls-8" d="m75.7 73.1c1.4 0.3 2.3-1.5 3.7-1.7 1.7-0.4 2.8-3.3 1.6-3.9-1.1-0.5-2.6-1.6-4.6 0.1"/>
  <path class="cls-5" d="m80.2 66.5 2.4-4.6 1 0.5-2.6 4.5"/>
  <path class="cls-5" d="m85.2 58.4 0.7 1c0.3 0.1 0.6 0.1 0.7-0.3l4.5-8-0.5-0.7-0.6 0.2-4.8 7.8z"/>
  <line class="cls-5" x1="89.7" x2="90.6" y1="51.5" y2="52"/>
  <path class="cls-8" d="m86.5 56.1 0.7 0.5"/>
  <path class="cls-8" d="m86.1 57.1 0.5 0.4"/>
  <path class="cls-8" d="m81.1 60.4 1.3 1.5"/>
  <path class="cls-5" d="m78.5 67.5 2.2-0.1"/>
  <path class="cls-5" d="m79 68.6 1.9 0.5"/>
  <path class="cls-5" d="m78.9 69.9 1.2 0.6"/>
  <path class="cls-5" d="m77.9 71 1.2 0.6"/>
  <path class="cls-5" d="m81.5 68.4"/>
  <path class="cls-3" d="m68.7 80 3-0.1 2.3-2.5"/>
  <path class="cls-6" d="m73.7 77.6 0.7 0.8-1.2 0.5c-0.8 0.6-0.8 2.6 0.9 2.5 1.4-0.3 1.5-1.9 0.5-1.9h3.8v3c-3.7-0.4-2.8 3.1 0 2.1l-0.2 3.3-3 0.1c0.7 2.9-3.7 3-2.6 0.5l-4 0.4"/>
  <path class="cls-8" d="m67.6 83.4v-3l-3.5 0.1c0.6 2.5-3.7 3-2.6 0.1h-3.5l-0.1 3c-2.4-0.5-3.3 3-0.2 3l-0.2 3.5 3.7 0.3c-1.6-2.9 3.4-3.8 2.3-0.4l3.9-0.5v-2.6"/>
  <path class="cls-5" d="m67.4 83.9h0.6"/>
  <path class="cls-5" d="m67.6 86.4h0.4"/>
  <path class="cls-6" d="m82.6 81.4c1.5 2.7 4.5 4.2 10 4.5"/>
  <path class="cls-9" d="m81 84.4c1.6 4.2 8.6 6.5 15.4 5"/>
  <path class="cls-6" d="m91.1 82.4c4.4 1 11 2.1 14.6-1.4"/>
  <line class="cls-6" x1="95.6" x2="98.7" y1="85.6" y2="85.4"/>
  <path class="cls-4" d="m105.5 87.9c-2.4-0.3-3.6-2 1.6-2.5"/>
  <path class="cls-4" d="m104.6 88.9-5 1.5c1.8 1.2 5.5 1.5 8.5 1l-2.4 2.5c2 0.1 4.4-0.3 5.9-1.5"/>
  <path class="cls-8" d="m108.5 79.5 0.9-1.9 1.1-0.2 0.6 1.2-0.9 1.3h-1.1l-0.6-0.4z"/>
  <path class="cls-8" d="m111.1 78.6 3.1-0.5 0.2-0.5 0.2 1"/>
  <path class="cls-1" d="m116.1 92.4c2.9-0.7 4.3-2.3 3.3-3.3l-3.8 0.5-2-4.2 2.8-2.5c-1.3-1.3-4.8-0.5-5.8 0.7l2.3 1.4-3.5 4.1 3.3 0.5-1-2.6"/>
  <path class="cls-1" d="m115.9 83.6c3.8-3.7 8.7-3.6 10.3-2.2-0.6 2.7-2.1 5.2-7 7"/>
  <circle class="cls-1" cx="120.7" cy="84.1" r="1.4"/>
  <path class="cls-4" d="m129.5 86.4 1.6-1"/>
  <path class="cls-4" d="m132.9 85 1.7-0.1"/>
  <line class="cls-4" x1="136.2" x2="136.7" y1="85.1" y2="85.1"/>
  <path class="cls-9" d="m128.7 91.5c0.9 0.2 2 0.2 3 0.2"/>
  <path class="cls-9" d="m134.6 91.5c0.9-0.1 1.8-0.4 2.8-0.8"/>
  <path class="cls-9" d="m140.2 89.1 2.2-1.2"/>
  <path class="cls-9" d="m145.1 86.4 2.1-0.3"/>
  <path class="cls-1" d="m129.5 82c2.9-4.9 11.1-4.6 10.1 1.5"/>
  <path class="cls-1" d="m140.2 83.6c1.3-1.1 3.9-1.7 5.9-1.6"/>
  <path class="cls-1" d="m145.1 81.5c0-4.5 6.3-6 9.8-1.9"/>
  <path class="cls-6" d="m145.6 73.5c4 0 5.1-3.1 9.1-3.8l2.4 0.4"/>
  <path class="cls-6" d="m156.7 69.5c2.3-1.1 6.7 0 7.7 2.6l-2.4-0.6"/>
  <path class="cls-6" d="m154.7 70.5c-2.2 3 2 4 2.8 2 0.4-1-0.9-2.1-2-2"/>
  <path class="cls-4" d="m158.5 73.9c2 2 5.2 2.8 8.9 1.5l2.7-2.5 1.9 0.5"/>
  <path class="cls-2" d="m151.6 83.1c-0.5 0-1.1 5.3-0.6 5.8 0.4 0.2 5.4 0.2 5.6 0 0.5-0.4 0.8-5 0.3-5.8-0.3-0.2-4.9-0.2-5.3 0z"/>
  <path class="cls-8" d="m160.4 83.1c-0.5 0-1 5.5-0.3 6 0.4 0.3 5.1 0.4 5.4 0 0.6-0.5 0.7-5 0.1-5.7-0.5-0.4-4.9-0.5-5.2-0.3z"/>
  <path class="cls-6" d="m168.6 83.5c-0.5 0-0.7 5.6 0 6 0.4 0.4 5.1 0.5 5.4 0.1 0.6-0.5 0.5-5-0.1-5.7-0.5-0.4-5-0.7-5.3-0.4z"/>
  <polyline class="cls-5" points="152.6 85.6 153.6 86.6 155.6 85"/>
  <polyline class="cls-5" points="161.5 86 162.6 87.1 164.6 85"/>
  <polyline class="cls-6" points="169.9 86 171 87.1 172.6 85.6"/>
  <path class="cls-6" d="m34.1 70.6c-1.9 1.3-2.7 4-1.6 4.4l3.6-0.9"/>
  <path class="cls-1" d="m35.4 70.5 2-0.9c0.8 0.1 1.2 0.9 0.6 1.5"/>
  <line class="cls-1" x1="37.9" x2="38.1" y1="72.4" y2="72.9"/>
  <path class="cls-6" d="m61 50.9c-1.1-0.4-1.8-2.4-1.4-2.3"/>
  <path class="cls-6" d="m62.6 56.9c0-1.8-0.6-4.5-1.7-5.4"/>
  <path class="cls-8" d="m60.6 76.4 2.4 0.2"/>
  <path class="cls-8" d="m116.1 32.1 2.3 1.4"/>
  <line class="cls-8" x1="119.6" x2="120.2" y1="28.4" y2="29.5"/>
  <line class="cls-8" x1="120.5" x2="121" y1="31.1" y2="32.1"/>
  <line class="cls-8" x1="123.1" x2="123.2" y1="30.9" y2="31.6"/>
  <line class="cls-8" x1="123.4" x2="123.4" y1="28" y2="28.6"/>
  <path class="cls-2" d="m130.6 24.9c-1.2 0.1-1.9 1-1.9 2.6v6.4c0 1 0.7 1.7 1.9 1.7h1.6l0.2 2.4 2.7-2.4h4.9c1.1 0 1.7-0.6 1.7-1.7l0.3-6.4c0-1.5-0.6-2.6-2.4-2.7l-9 0.1z"/>
  <polyline class="cls-5" points="132.9 30.6 134.6 32.6 138.4 28.4"/>
  <path class="cls-1" d="m116.6 56.9c-6-0.8-10 10-7.7 14.6 1 2 2.7 2.9 4.3 2.9"/>
  <path class="cls-1" d="m126.1 57.4 2.8 1.7"/>
  <path class="cls-8" d="m116.4 52.5c3 6.6 11.7 6.1 12.7-0.9"/>
  <path class="cls-1" d="m115.4 49.7c-2.4-0.7-3.3 2.9-0.3 3.4h1.3"/>
  <path class="cls-3" d="m114.4 48.9c-2.8-2-2.4-4.5-0.2-5.5-0.7-2.4 1.7-4.8 4-3.5 1.3-1.4 3.3-2.9 5.3-1 1.1-0.9 2.5-0.9 3 0.6 1.5-0.5 2.9 0.5 2.5 1.9 1.7 0.1 2.4 2 0.5 2.3 1.6 0.5 1 2.3-0.1 2.4"/>
  <path class="cls-8" d="m119.2 50c0-3.1 3.9-3.6 5.3-1.1"/>
  <path class="cls-8" d="m125.1 49.1c0.8-2.1 4.3-2.6 4.6 0.5 0.2 2.3-1.6 2.4-3.1 1.9"/>
  <path class="cls-4" d="m121.1 52c0.5 0.9 2.9 1.1 3.4 0"/>
  <path class="cls-1" d="m117.6 56.9-0.4 1.6 2.7 1.9c1.5 0.5 3-0.3 3.5-1.3l0.2-1.1"/>
  <path class="cls-1" d="m117.2 59.1 2.4 1.9c1 0.7 1.9 1.1 2.4 0.1"/>
  <path class="cls-1" d="m114.6 68 0.3-4.4"/>
  <path class="cls-1" d="m112.2 68.6c1.3-0.6 3.4-0.7 6 0"/>
  <path class="cls-1" d="m119.6 68 0.5-2.4"/>
  <path class="cls-1" d="m120.4 67.9 0.1-0.5"/>
  <path class="cls-7" d="m122.4 75.5 2.6-12.5c0.2-0.9 0.6-1.4 2.1-1.4l16.8 0.1c0.8 0 1.5 0.3 1.1 1.7l-2.8 11c-0.1 0.7-0.2 1.1-1.5 1.1l-16.1 0.4"/>
  <path class="cls-1" d="m120.4 74.4c-3-1.5-5.5 0.2-5 0.5l5.5 0.6"/>
  <path class="cls-8" d="m116.6 51.1 2.6-0.2"/>
  <path class="cls-3" d="m116.6 49c-0.5-0.6 0.3-2.5 1.1-3.1 0.8 0.7 2.5 0 2.7-1.5 1 1.1 3 1.2 3.6-0.3 1.4 1.3 2.5 0.8 3.2-0.5 0.8 0.8 1.8 1 2.2 0.5-0.5 1.4-0.3 2.3 0.3 2.8"/>
  <path class="cls-8" d="m119.9 55.9c1.2 1.5 4.8 1.7 6.5 0.5"/>
  <path class="cls-3" d="m117.1 53.4-0.7-0.9"/>
  <path class="cls-1" d="m116.7 72.9c-0.6-1.5-0.2-4.3 3.9-4.3l0.4 0.5"/>
  <path class="cls-1" d="m118.1 72.5 2.6 0.6"/>
  <path class="cls-1" d="m120.1 71.1 0.6 0.6"/>
  <path class="cls-1" d="m120.6 70 0.8 0.6"/>
  <path class="cls-1" d="m120.9 72.1 0.2 0.8"/>
  <circle class="cls-1" cx="134.1" cy="68.9" r="1.9"/>
  <line class="cls-4" x1="125.2" x2="124.9" y1="68" y2="69.1"/>
  <line class="cls-1" x1="131.4" x2="131.9" y1="56.1" y2="56.9"/>
  <line class="cls-1" x1="132.1" x2="131.6" y1="55.4" y2="56.4"/>
  <path class="cls-8" d="m147.6 56.5-0.1 1 1 1 0.9-0.6-0.3-1-1-0.5-0.2 0.2"/>
  <line class="cls-8" x1="144.4" x2="144.7" y1="56.4" y2="56.1"/>
  <path class="cls-8" d="m147.7 45.1 0.4-0.7-0.1-0.3"/>
  <path class="cls-8" d="m147.1 47.9-0.1 1.5"/>
  <path class="cls-8" d="m147.2 52.4 0.3 1"/>
  <path class="cls-8" d="m148.5 61.9-0.4 0.5 0.8 1-0.2 3.5-0.6 1 0.4 0.1 0.9-1.1"/>
  <path class="cls-1" d="m133.4 59.4 3-14c0.7-1.5 1.6 0.2 1.3 4.2"/>
  <path class="cls-8" d="m135.7 55.9 3.4 0.5 1.3-1.9c0.1-2.6-1.4-3.1-3-3.1"/>
  <path class="cls-1" d="m135.2 53.6c-1-3.6 1-4.5 2.5-3.5"/>
  <path class="cls-1" d="m137.4 50.1c0-1 1.7-2 2 0"/>
  <path class="cls-1" d="m138.6 51c0.6-1.4 2.4-1.6 1.6 0.4"/>
  <path class="cls-1" d="m140.4 51.5c1.2 0 1 1.6 0 1.9"/>
  <line class="cls-1" x1="139.1" x2="139.1" y1="56.9" y2="59.5"/>
  <path class="cls-1" d="m138.6 53.4 0.8 1"/>
  <path class="cls-5" d="m123.9 89.6 1.6 0.9"/>
  <circle class="cls-5" cx="75.1" cy="51.9" r=".4"/>
  <circle class="cls-5" cx="81.6" cy="51.6" r=".4"/>
  <path class="cls-5" d="m77 55.6c0.6 1 2.4 0.9 2.6-0.2"/>
  <path class="cls-5" d="m77.6 52.9 0.1 1.2"/>
  <path class="cls-5" d="m80.6 52.9v1.1"/>
  <path class="cls-8" d="m86.6 41.5 0.3-0.4"/>
  <path class="cls-8" d="m107.1 47.1 0.3-0.2"/>
  <line class="cls-8" x1="105.5" x2="106.1" y1="49.5" y2="49.9"/>
  <line class="cls-8" x1="108.4" x2="109" y1="51.9" y2="52.6"/>
  <path class="cls-8" d="m109 51.6 0.5 0.5"/>
  <path class="cls-4" d="m120.1 49.6"/>
  <path class="cls-8" d="m122.7 49.6h0.2"/>
  <path class="cls-8" d="m127.5 49.6"/>
  <path class="cls-4" d="m125.4 50.6v1l0.6 0.8"/>
  <path class="cls-7" d="m93.2 59.5 8.8 0.1"/>
  <path class="cls-7" d="m88.4 62.1 9.2 0.4-1.5 7.1-10.2-0.9 2.5-6.6z"/>
  <line class="cls-7" x1="88.7" x2="95.6" y1="62.6" y2="69.1"/>
  <line class="cls-7" x1="97.4" x2="86.6" y1="62.4" y2="68.7"/>
  <polyline class="cls-7" points="98.7 68.9 100.5 62.6 100.5 62.4"/>
  <path class="cls-9" d="m84.2 71.5 2.5 0.2-0.5 3.3-3.1-0.1 1.1-3.4z"/>
  <path class="cls-6" d="m89.6 72.1 3.1 0.3-0.8 3.2-3.2-0.2 0.9-3.3z"/>
  <path class="cls-2" d="m95.6 72.6 3.1 0.3-0.7 3.5-3.5-0.3 1.1-3.5z"/>
  <path class="cls-7" d="m104.1 69.6 1.6 7.8"/>
  <path class="cls-3" d="m85.1 60.9"/>
  <path class="cls-1" d="m235 45.4"/>
  <path class="cls-1" d="m235 44.9"/>
  <path class="cls-1" d="m235 44.4"/>
  <path class="cls-1" d="m235 43.9"/>
  <path class="cls-1" d="m235 43.4"/>
  <path class="cls-1" d="m235 44.1"/>
  <path class="cls-1" d="m235 58.1"/>
  <path class="cls-1" d="m235 44.6"/>
  <path class="cls-1" d="m235 44.4"/>
  <path class="cls-1" d="m235 44.1"/>
  <path class="cls-1" d="m235 44.1"/>
  <path class="cls-1" d="m235 58.1"/>
  <path class="cls-1" d="m235 45.4"/>
  <path class="cls-1" d="m235 45.9"/>
  <path class="cls-1" d="m235 58.1"/>
  <path class="cls-1" d="m235 44.9"/>
  <path class="cls-1" d="m235 45.4"/>
  <path class="cls-1" d="m235 45.9"/>
  <path class="cls-1" d="m235 45.9"/>
  <path class="cls-1" d="m235 45.9"/>
  <path class="cls-1" d="m235 45.4"/>
  <path class="cls-1" d="m235 46.1"/>
  <path class="cls-1" d="m234.9 57.9v-18.4c0-1.1 0.7-2 2-2h37.5c1.3 0 2.1 0.6 2.2 2v2.1"/>
  <circle class="cls-5" cx="238.6" cy="41.1" r=".9"/>
  <circle class="cls-5" cx="240.7" cy="41.1" r=".7"/>
  <circle class="cls-5" cx="242.7" cy="41" r=".7"/>
  <line class="cls-3" x1="237.9" x2="245.5" y1="43" y2="42.9"/>
  <line class="cls-1" x1="268.5" x2="273" y1="40.6" y2="40.6"/>
  <line class="cls-6" x1="257.6" x2="264.7" y1="43.1" y2="43.1"/>
  <line class="cls-6" x1="247.4" x2="254.4" y1="43.4" y2="43.4"/>
  <line class="cls-6" x1="247.1" x2="247" y1="41.1" y2="65.4"/>
  <line class="cls-6" x1="257.4" x2="256.6" y1="41" y2="65.5"/>
  <line class="cls-6" x1="265.1" x2="265.4" y1="41.1" y2="53.6"/>
  <path class="cls-6" d="m239.2 45.9"/>
  <path class="cls-6" d="m239.2 51"/>
  <path class="cls-6" d="m239.1 45.9"/>
  <path class="cls-6" d="m239.1 50.9"/>
  <path class="cls-6" d="m239.2 45.9"/>
  <path class="cls-3" d="m239.1 45.9"/>
  <path class="cls-6" d="m239.1 51"/>
  <path class="cls-1" d="m239.1 50.9"/>
  <path class="cls-1" d="m239.1 50.9"/>
  <path class="cls-6" d="m239.2 45.9"/>
  <path class="cls-1" d="m239.1 50.9"/>
  <path class="cls-6" d="m239.1 45.9"/>
  <path class="cls-6" d="m239.1 50.9"/>
  <path class="cls-6" d="m239.1 45.9"/>
  <path class="cls-6" d="m239.1 50.9"/>
  <path class="cls-6" d="m239.1 45.9"/>
  <path class="cls-6" d="m239.1 50.9"/>
  <path class="cls-3" d="m239 46"/>
  <path class="cls-3" d="m239 51"/>
  <path class="cls-3" d="m239.1 45.9"/>
  <path class="cls-3" d="m239.1 51"/>
  <path class="cls-3" d="m239.1 45.9"/>
  <path class="cls-3" d="m239.1 51"/>
  <path class="cls-6" d="m239.1 45.9"/>
  <path class="cls-6" d="m239.1 50.9"/>
  <path class="cls-6" d="m239.1 45.9"/>
  <path class="cls-6" d="m239.1 50.9"/>
  <path class="cls-6" d="m239.2 45.9"/>
  <path class="cls-6" d="m239.1 51"/>
  <path class="cls-6" d="m239.1 45.9"/>
  <path class="cls-6" d="m239.1 50.9"/>
  <path class="cls-6" d="m239.1 45.9"/>
  <path class="cls-6" d="m239.1 50.9"/>
  <path class="cls-6" d="m239.1 45.9"/>
  <path class="cls-6" d="m239.1 50.9"/>
  <path class="cls-6" d="m239.1 45.9"/>
  <path class="cls-6" d="m239.1 50.9"/>
  <path class="cls-6" d="m239.1 45.9"/>
  <path class="cls-6" d="m239.1 50.9"/>
  <path class="cls-6" d="m239.1 45.9"/>
  <path class="cls-6" d="m239.1 50.9"/>
  <path class="cls-6" d="m239.1 45.9"/>
  <path class="cls-6" d="m239.1 50.9"/>
  <path class="cls-6" d="m239.1 45.9"/>
  <path class="cls-6" d="m239.1 51"/>
  <path class="cls-6" d="m239.1 45.9"/>
  <path class="cls-6" d="m239.1 50.9"/>
  <path class="cls-1" d="m239.1 45.9"/>
  <path class="cls-6" d="m239.1 50.9"/>
  <path class="cls-6" d="m239.1 45.9"/>
  <path class="cls-6" d="m239.1 50.9"/>
  <path class="cls-6" d="m239.1 45.9"/>
  <path class="cls-6" d="m239.1 51"/>
  <path class="cls-6" d="m239.1 45.9"/>
  <path class="cls-6" d="m239.1 50.9"/>
  <path class="cls-6" d="m239.1 45.9"/>
  <path class="cls-6" d="m239.1 50.9"/>
  <path class="cls-1" d="m239.1 45.9"/>
  <path class="cls-6" d="m239.1 51"/>
  <path class="cls-6" d="m239.1 45.9"/>
  <path class="cls-6" d="m239.1 50.9"/>
  <path class="cls-1" d="m239.1 45.9"/>
  <path class="cls-6" d="m239.1 50.9"/>
  <path class="cls-1" d="m239.1 45.9"/>
  <path class="cls-6" d="m239.1 50.9"/>
  <path class="cls-6" d="m239 46"/>
  <path class="cls-6" d="m239 51"/>
  <path class="cls-6" d="m239 46"/>
  <path class="cls-6" d="m239.1 51"/>
  <path class="cls-6" d="m239 46"/>
  <path class="cls-6" d="m239.1 51"/>
  <path class="cls-6" d="m239.1 45.9"/>
  <path class="cls-3" d="m239.1 51"/>
  <path class="cls-6" d="m239.1 45.9"/>
  <path class="cls-3" d="m239.1 51"/>
  <path class="cls-6" d="m239.1 45.9"/>
  <path class="cls-6" d="m239.1 51"/>
  <path class="cls-6" d="m239.1 45.9"/>
  <path class="cls-6" d="m239.1 51"/>
  <path class="cls-6" d="m239.1 45.9"/>
  <path class="cls-6" d="m239.1 50.9"/>
  <path class="cls-6" d="m239.1 45.9"/>
  <path class="cls-6" d="m239.1 50.9"/>
  <path class="cls-6" d="m239 46"/>
  <path class="cls-6" d="m239.1 51"/>
  <path class="cls-6" d="m239.1 45.9"/>
  <path class="cls-6" d="m239.1 50.9"/>
  <path class="cls-6" d="m239.1 45.9"/>
  <path class="cls-6" d="m239.1 50.9"/>
  <path class="cls-6" d="m239.1 45.9"/>
  <path class="cls-6" d="m239.1 50.9"/>
  <path class="cls-6" d="m239.1 45.9"/>
  <path class="cls-6" d="m239.1 50.9"/>
  <path class="cls-6" d="m239.1 45.9"/>
  <path class="cls-6" d="m239.1 51"/>
  <path class="cls-3" d="m239.1 45.9"/>
  <path class="cls-3" d="m239.1 50.9"/>
  <path class="cls-2" d="m250 55.9c-0.4 0.1-1 4.6-0.5 4.7 0.4 0.3 4.5 0.3 4.7 0 0.3-0.2 0.2-4.4-0.2-4.7-0.3-0.3-3.8-0.3-4 0z"/>
  <path class="cls-1" d="m258.9 54.1c-0.3 0.1-0.4 4 0 4.4 0.3 0.1 3.7-0.4 4-0.6 0.2-0.3 0.2-3.5 0-3.8-0.3-0.1-3.8-0.1-4 0z"/>
  <path class="cls-8" d="m249.6 46.4c-0.2 0.1-0.6 5-0.1 5.2 0.4 0.1 4.9-0.1 5.1-0.2 0.3-0.3 0-4.8-0.2-5.2-0.4-0.2-4.5 0-4.8 0.2z"/>
  <path class="cls-6" d="m239 46c-0.3 0.1-0.3 4.9 0 5 0.4 0.2 5.1 0 5.4-0.1 0.2-0.3 0-4.8-0.2-5-0.3-0.3-5 0-5.2 0.1z"/>
  <path class="cls-1" d="m267.5 45.4c-0.3 0.1-0.4 4.2-0.1 4.5 0.2 0.1 4.2 0 4.6-0.2 0.2-0.1 0.1-4.2-0.1-4.3-0.3-0.3-4.3 0-4.4 0z"/>
  <line class="cls-8" x1="250.9" x2="253.1" y1="47.9" y2="47.9"/>
  <line class="cls-8" x1="251.6" x2="253.5" y1="49.1" y2="49.1"/>
  <line class="cls-6" x1="240.6" x2="243.1" y1="47.9" y2="47.9"/>
  <line class="cls-6" x1="240.9" x2="243" y1="49.1" y2="49"/>
  <line class="cls-2" x1="250.9" x2="253.2" y1="57.4" y2="57.4"/>
  <line class="cls-2" x1="250.9" x2="253.1" y1="58.6" y2="58.6"/>
  <polyline class="cls-6" points="259.5 56 260.4 56.9 261.6 55.4"/>
  <polyline class="cls-1" points="268.5 47 268.4 47.9 270.6 47.9"/>
  <path class="cls-8" d="m205.5 54.9 0.6 1.6 2.3-1.5c6 0.6 5.7-7.6 0-7.5-5.2-0.1-5.8 6.1-2.9 7.4z"/>
  <circle class="cls-5" cx="206.7" cy="51.4" r=".5"/>
  <circle class="cls-5" cx="209" cy="51.4" r=".5"/>
  <circle class="cls-5" cx="210.6" cy="51.4" r=".5"/>
  <path class="cls-1" d="m204.9 25-2 1.6-1.9-0.4-1.9 2 1.3 1.9-0.9 2-2 0.5-0.1 2.9 2.2 0.4 0.5 1.7-1.2 1.4 1.6 1.9 2-0.9 1.5 0.6 0.1 1.8h2.9l0.5-1.8 1.6-1.1 1.9 1 2.2-1.9-1.1-1.6 0.8-1.5 2-0.4 0.3-2.7-1.8-0.4-0.4-1.9 1-1.1-1.4-2.3-2 0.9-2-1.1v-1.5h-3.1z"/>
  <circle class="cls-1" cx="206.4" cy="33.4" r="2.6"/>
  <path class="cls-4" d="m177.9 45c0.5-1.9 2.2-4.4 4.6-4.9"/>
  <path class="cls-9" d="m175.6 51.6c-0.2 2-0.2 4.4 1 6"/>
  <path class="cls-6" d="m177.6 59 1 1.5"/>
  <path class="cls-1" d="m168.5 80.9c2.6-4.3 9.4-4.3 10.9 0.5"/>
  <path class="cls-1" d="m177.1 88.6c2.8 4.9 12.8 4 12.4-3"/>
  <path class="cls-8" d="m187.6 79.6c4.9 1.9 6.3-3 12.3-1"/>
  <path class="cls-1" d="m190.5 84.9 2.6 0.1 1.9 1.6h-3.1"/>
  <path class="cls-6" d="m194.9 84c-0.3-2.5 2.5-4.6 5.7-5"/>
  <path class="cls-5" d="m198.1 88.4 0.9-4.4 12.1 0.5v4.1"/>
  <path class="cls-5" d="m205.1 81.4v3"/>
  <circle class="cls-9" cx="198.1" cy="90.5" r="2"/>
  <circle class="cls-2" cx="204.6" cy="78.6" r="2"/>
  <circle class="cls-2" cx="211.1" cy="90.6" r="2"/>
  <circle class="cls-2" cx="204.5" cy="90.6" r="2"/>
  <path class="cls-8" d="m181.4 83.6c1.1-2 7.2-2.2 7.3 1.8"/>
  <path class="cls-9" d="m185.4 83.6c1.5 0.9-0.3 3.8-1.7 2.5-1.2-1.2 0.9-3.7 1.7-2.5z"/>
  <path class="cls-1" d="m178.5 82.9c-1 1.6 1 2.5 1.9 0.6"/>
  <path class="cls-1" d="m196.9 57.9c6.2-0.4 9.2 11.2 5.7 15-1 1-2.5 1-3.7 1"/>
  <path class="cls-1" d="m190 59.9c2.2 0.5 4.4-0.5 5.9-2.3"/>
  <path class="cls-5" d="m190.1 58.9c-0.6 0-1 1.5 0.3 1.2 1-0.2 0.5-1.2-0.3-1.2z"/>
  <path class="cls-1" d="m195.6 50.6c-0.2-2.5-1.7-7.7-5.5-8"/>
  <path class="cls-9" d="m181.9 51.6c-1.2-0.2-2.3-1-1.4-2.5-0.9-2 0.1-3.2 2.1-3.7-0.6-1.5 1.5-2.8 3-2.5 0.4-1.7 3-1.8 4-0.4 1.3-1.5 3-1.4 4 0.1 1-1.1 3-0.2 2.8 1.5 1.7-0.2 3 1.5 2.1 2.8 1.6-0.3 2.1 2.1 0.6 2.7 1 1.3 0.4 3-0.5 2.9"/>
  <path class="cls-1" d="m183.1 48.9c-1.7 5 0 10.2 6.5 10.2"/>
  <path class="cls-1" d="m184.1 48.1 1 0.5c1 0 2.5-0.5 2.8-1.7 0.7 1 2.3 1.5 3.7 0.7 0 1.3 1 1.9 2 1.8l0.5 1.2"/>
  <path class="cls-1" d="m195.9 50.1c-2.9 1.3-1.9 5.4 1.3 4.9s2.4-5.9-1.3-4.9z"/>
  <path class="cls-1" d="m196.6 51.4c-1.1 0.7-0.9 2.6 0.5 2.2"/>
  <path class="cls-5" d="m187.6 55.9c0.8 1.1 2.6 0.2 2.5-0.8"/>
  <path class="cls-5" d="m188.5 52-0.1 1.1"/>
  <path class="cls-5" d="m190.6 53.1-0.1 0.8"/>
  <path class="cls-5" d="m184.6 51.9 0.1 1"/>
  <path class="cls-8" d="m184.1 62.1 1.4-1.5"/>
  <path class="cls-6" d="m191.4 62.4c2.8 0 4-2.3 4.3-3"/>
  <path class="cls-1" d="m197.4 63.9-0.2 4"/>
  <path class="cls-8" d="m193.9 67.9c1.6-0.3 4.2-0.3 5.6 0.5"/>
  <path class="cls-1" d="m189.6 69c2-1.4 6.3-1.6 5.1 3.5l-0.7 0.1"/>
  <path class="cls-5" d="m191.1 70.1-1 1"/>
  <path class="cls-5" d="m191.6 71.1-1.2 1"/>
  <path class="cls-5" d="m192.2 72.1-0.6 0.8"/>
  <path class="cls-1" d="m189.4 74.5-2.5-8.9c-0.3-1-0.8-1.2-2.2-1.2h-10.2c-1 0-1.6 0.2-1 1.5l2.9 8.5c0.2 0.6 0.5 1 1.5 1l10.5 0.5 8.3-1.8c0.7-0.2 0.7-1.2-0.2-1.2l-5.4 1c-1.2 0-1-0.5-0.6-1"/>
  <path class="cls-8" d="m180.4 69.6 0.5 1 0.7-0.5-0.2-0.5-0.7-0.2-0.3 0.2"/>
  <path class="cls-1" d="m204.9 60c4 0.6 5.2 4.4 4.1 8.9"/>
  <path class="cls-6" d="m214.9 68.4c0.1 2.1 0.7 4 1.6 5.5"/>
  <path class="cls-9" d="m206.6 71.9c3.6-0.9 7.4 1.6 6.9 7.5 2.6-3.4 7.2-3.3 14.5-2.3l6.5-0.1 0.4-0.1-0.3 0.1h0.3l0.1-0.1-0.4 0.1h0.3-0.3 0.3-0.3-0.4 0.7-0.3l0.4-0.1-0.4 0.1h0.3 0.1"/>
  <path class="cls-7" d="m217.5 81.5v10.4c0 1 0.6 1.6 1.5 1.6l15.1-0.1c1 0 1.6-0.5 1.6-1.9v-9.9c0-1.1-0.6-1.6-1.7-1.6h-14.9c-0.9 0-1.6 0.5-1.6 1.5z"/>
  <line class="cls-7" x1="218.4" x2="234.9" y1="83.6" y2="83.6"/>
  <circle class="cls-6" cx="219.5" cy="82.1" r=".5"/>
  <circle class="cls-6" cx="221.4" cy="82.1" r=".5"/>
  <circle class="cls-6" cx="223" cy="82.1" r=".5"/>
  <path class="cls-8" d="m219.4 85.9 0.1 4.7h3.6l0.3-4.7h-4z"/>
  <path class="cls-8" d="m225 88.1v2.5h2l0.1-2.5h-2.1z"/>
  <line class="cls-1" x1="225" x2="232.9" y1="86.1" y2="86.1"/>
  <line class="cls-8" x1="228.9" x2="233.1" y1="88" y2="88"/>
  <line class="cls-8" x1="228.9" x2="232.9" y1="90.4" y2="90.4"/>
  <line class="cls-6" x1="220.5" x2="222.4" y1="87" y2="89.1"/>
  <line class="cls-6" x1="222.5" x2="220.5" y1="87.4" y2="89.4"/>
  <path class="cls-8" d="m221.9 69c6.6 7 14.5 7.6 17.7-1.4"/>
  <path class="cls-8" d="m225.5 59.9c2 1.7 3.7 0.7 4-0.5l-0.1-1.8"/>
  <path class="cls-1" d="m222.6 54.4c1.8 3 1.3 6.2-2 7.1-3.1 0.6-2.5 8.6-1.1 12.4"/>
  <path class="cls-4" d="m216.6 67.6c-3-0.7-4.5-5.5-1.2-8.2-3.4-2.5 1.5-4 1.5-5.8-1.4-9 4.5-12.7 7.6-11.5 2.2-1.6 4.9-1 7 1.4"/>
  <path class="cls-9" d="m215.4 62.9c-1.3 1.7-0.8 4.1 1.1 4.7"/>
  <path class="cls-9" d="m222.5 50.6c-3.1 0.4-2.4 4.8 0.2 3.9"/>
  <path class="cls-9" d="m223.5 50.6c2.2-1.1 4-3.2 3.7-6.4 1.7 0.8 3.2 1.3 5 1.7"/>
  <path class="cls-1" d="m226.6 57.4c5 1 7.4-3.8 5.9-8.3"/>
  <path class="cls-5" d="m228.5 53.4c0.6 1.1 1.9 1.2 2.6 0.2"/>
  <path class="cls-5" d="m231.4 48.1 0.5 1"/>
  <path class="cls-5" d="m227.9 51.1 0.2 0.5"/>
  <path class="cls-8" d="m229.4 52.1 0.1 0.5"/>
  <path class="cls-8" d="m231.6 47.5 0.6 0.4"/>
  <path class="cls-8" d="m231.9 49.6 0.5 0.3"/>
  <path class="cls-8" d="m229.1 57.6c1.3 0 3.8 1.4 4.8 3.5"/>
  <path class="cls-8" d="m225.4 63.4 5.2 4 5.1-4.9"/>
  <path class="cls-1" d="m237.6 63.5-1.7 1.6-5.3 4.9"/>
  <path class="cls-1" d="m237.4 62.9 2.7 2.6 1.3-1.4c2.6-0.5 3.7-2.7 3-3.1 1.1 0 0.7-1.6-0.5-1.4 1.2-0.5 0.7-1.7-0.7-1.5l1.2-1.5-0.8-0.7-3 3c-1-2.5-3 2-3 4z"/>
  <line class="cls-1" x1="240.6" x2="245.5" y1="58.9" y2="53.6"/>
  <path class="cls-8" d="m237.9 66.1 1.2 0.9"/>
  <path class="cls-1" d="m241.6 72.1"/>
  <path class="cls-1" d="m241.6 72.1"/>
  <path class="cls-1" d="m241.6 72.1"/>
  <path class="cls-1" d="m241.6 72.1"/>
  <path class="cls-1" d="m241.6 72.1"/>
  <path class="cls-1" d="m241.6 72.1"/>
  <path class="cls-1" d="m241.6 72.1"/>
  <path class="cls-1" d="m241.6 72.1"/>
  <path class="cls-1" d="m241.6 72.1"/>
  <path class="cls-1" d="m241.6 72.1"/>
  <path class="cls-1" d="m241.6 72.1"/>
  <path class="cls-1" d="m241.6 72.1"/>
  <path class="cls-1" d="m241.6 72.1"/>
  <path class="cls-1" d="m241.6 72.1"/>
  <path class="cls-1" d="m241.6 72.1"/>
  <path class="cls-1" d="m241.6 72.1"/>
  <path class="cls-1" d="m241.6 72.1"/>
  <path class="cls-1" d="m241.6 72.1"/>
  <path class="cls-1" d="m241.6 72.1"/>
  <path class="cls-1" d="m241.6 72.1"/>
  <path class="cls-1" d="m241.6 72.1"/>
  <path class="cls-1" d="m241.6 72.1"/>
  <path class="cls-1" d="m241.6 72.1"/>
  <path class="cls-1" d="m241.6 72.1"/>
  <path class="cls-1" d="m241.6 72.1"/>
  <path class="cls-1" d="m241.6 72.1"/>
  <path class="cls-1" d="m241.6 72.1"/>
  <path class="cls-1" d="m241.6 72.1"/>
  <path class="cls-1" d="m241.6 72.1"/>
  <path class="cls-1" d="m241.6 72.1"/>
  <path class="cls-1" d="m241.6 72.1"/>
  <path class="cls-1" d="m241.6 72.1"/>
  <path class="cls-1" d="m241.6 72.1"/>
  <path class="cls-1" d="m241.6 72.1"/>
  <path class="cls-1" d="m241.6 72.1"/>
  <path class="cls-1" d="m241.6 72.1"/>
  <path class="cls-1" d="m241.6 72.1"/>
  <path class="cls-1" d="m241.6 72.1"/>
  <path class="cls-1" d="m241.6 72.1"/>
  <path class="cls-1" d="m241.6 72.1c1.6-2.7 6.5-5.5 10.6-1.1"/>
  <path class="cls-8" d="m254.5 70.5c0.7-1.9 3.5-2.9 3.9-0.9"/>
  <path class="cls-8" d="m255.4 70.1c-1.3 1.6 0.5 2.8 1.6 1.6l0.4-0.8"/>
  <path class="cls-8" d="m257.9 70.1c1.6-1 3.5 2 2.1 3.5l-0.9-1"/>
  <line class="cls-8" x1="257.1" x2="258.1" y1="72.1" y2="72.9"/>
  <path class="cls-8" d="m262.4 75.5c1.8-2.1 5.2-2.9 7.7-1.1"/>
  <path class="cls-9" d="m262.5 79.4c6.9-2.8 13 1.2 10.9 6.5-1.9 3-5.2 4.2-10.9 4"/>
  <path class="cls-1" d="m265.6 87-3.4 2.9 3.7 2.7"/>
  <path class="cls-8" d="m241.6 88.9c7.9 4 15.3 4 19.8-2 2.2-2.8 5.7-6.3 8.3-3.5"/>
  <path class="cls-2" d="m240.5 87.6 3-0.2-2.6 0.8 0.1 2.8 0.6-2.1"/>
  <path class="cls-4" d="m240.5 80.6"/>
  <path class="cls-1" d="m238.5 84"/>
  <path class="cls-8" d="m240.2 79.1c-1.1-2.2 0.7-5.2 2.9-4.5 2 0.5 2.6 3.3 1.3 5"/>
  <path class="cls-8" d="m246.1 80.5c-0.6-4.5 4.6-6.1 6.1-3.1 0.9 2 0.4 4-0.6 4.7"/>
  <path class="cls-9" d="m253.9 79.6c-0.5-4.7 5.1-6 5.2-1.2l-0.6 1.7"/>
  <path class="cls-1" d="m244.4 84.4c0.2-1 1.1-2 2-2.4"/>
  <path class="cls-1" d="m253.9 82.4c0.6 0.5 0.8 1.2 0.7 2.5"/>
  <path class="cls-8" d="m247.5 83.1c0.5 0.8 3.1 1.8 4 0"/>
  <path class="cls-5" d="m241.4 77.9v0.5"/>
  <path class="cls-5" d="m243.2 77.9v0.5"/>
  <path class="cls-5" d="m242 79.1c0.4 0.5 1.4 0.4 1.5-0.2"/>
  <path class="cls-6" d="m241.4 81c0.8 0.6 1.7 0.6 2.5 0"/>
  <path class="cls-1" d="m238.5 83.1"/>
  <path class="cls-1" d="m238.5 83.1"/>
  <path class="cls-1" d="m238.5 83.1"/>
  <path class="cls-1" d="m238.5 83.1"/>
  <path class="cls-1" d="m238.5 83.1"/>
  <path class="cls-1" d="m241.4 80.5c-1.2 0.5-3 2-2.4 3"/>
  <path class="cls-5" d="m254.9 77.9 0.1 0.5"/>
  <path class="cls-5" d="m256.6 77.9v0.5"/>
  <path class="cls-5" d="m255.5 79.1c0.5 0.5 1.4 0.3 1.4-0.2"/>
  <path class="cls-9" d="m255 81c0.7 0.9 1.9 1 2.5 0.1"/>
  <path class="cls-9" d="m257.5 82.5c2.2-1.1 2.1 1 1.5 1.4"/>
  <path class="cls-1" d="m247.4 74.4 0.2 0.6"/>
  <path class="cls-8" d="m247.9 74.9 0.2 0.2"/>
  <path class="cls-5" d="m248.5 79.1v0.8l0.6 0.2"/>
  <path class="cls-5" d="m250.1 79.1-0.1 0.8 0.9 0.2"/>
  <path class="cls-5" d="m249 81c0.9 0.6 2.1 0.5 2.2-0.4"/>
  <path class="cls-2" d="m247.6 83.6 1.3 1 1.2-1"/>
  <path class="cls-2" d="m270.6 64.1 2.5 12c0.1 0.5 0.4 0.8 1.1 0.8l9.4 0.5 0.1-2.3"/>
  <path class="cls-2" d="m271.9 64.4c-1-2.3 0.6-3 1.3-1.8"/>
  <path class="cls-2" d="m273.5 62.6c0.6-1 1.9-0.6 1.9 0.9"/>
  <path class="cls-2" d="m275.7 62.6c0.5-0.7 1.7-0.6 1.7 0.9"/>
  <path class="cls-2" d="m277.6 63.4c0.3-1.8 2.6-1.5 2.3 1.1"/>
  <path class="cls-1" d="m286 59c7.7-2.4 13.9 8.1 11.6 15-1.1 4.4-6.7 5.9-11.5 2.6"/>
  <path class="cls-1" d="m277.2 72.6c-0.6 1.3 1.8 1.9 5.9 2l0.6-2.2-1.1-4.3c-0.4-1-1.4-1.5-1.4-0.2"/>
  <path class="cls-1" d="m278.4 73.1 1.5 0.3"/>
  <path class="cls-1" d="m278 71.6 2.1 0.3"/>
  <path class="cls-1" d="m278 70.4 2.1 0.1"/>
  <path class="cls-1" d="m278.5 69.1 4.1 0.3 4.8 1.6 6 0.5"/>
  <path class="cls-6" d="m290.9 66.4"/>
  <path class="cls-6" d="m291.1 67.4"/>
  <path class="cls-6" d="m290.1 66.5"/>
  <path class="cls-6" d="m291.1 67.4"/>
  <path class="cls-6" d="m287.7 70.9c0.4-1.3 3.9-2.5 4.3-1.3"/>
  <path class="cls-6" d="m287.4 66.6 4.2-0.5"/>
  <path class="cls-6" d="m287.4 66.5 1.1 6.6c-0.1 1-1.5 3.3-3.5 2.5"/>
  <path class="cls-8" d="m277 58.1c1.9 2 6.6 2.9 9.5-0.5"/>
  <path class="cls-1" d="m276.1 56c0.3 1.4 1.5 3 2.8 3.5"/>
  <path class="cls-1" d="m276.6 47.6c-1.1 2-1.2 6.8-0.1 7.8"/>
  <path class="cls-1" d="m277 46.9c-2.6 2-1.9-2.5 0-1.5-0.6-1.5 0.7-2.5 2.4-1.8 0.8-2 2.7-1.7 3.2-0.5 1.4-1.5 3.9-0.1 4.5 1.3 1.5-0.9 3.4 0.2 2.6 1.6 1.4-0.4 2.9 0.6 2.2 2.1 1.6 0.4 1.8 3.8 0.2 4 1.8 1.5-0.1 3.5-1 2.9"/>
  <path class="cls-8" d="m290 54.1c-0.6-1.6-3.1-0.6-1.9 2.3 1.9 0.5 3.9-1.9 1.6-3"/>
  <path class="cls-1" d="m279.4 45-0.9 0.9"/>
  <path class="cls-1" d="m279.1 44.1-1.2 1"/>
  <path class="cls-1" d="m277.9 47.1 1.7 0.5 2-0.5c-0.2 1.8 2.1 2.5 3 1-0.4 1.9 1.5 2.8 3 1.8-1.2 1.2 0 4.2 1.1 3.5"/>
  <path class="cls-5" d="m287.9 55.1 1.2-0.6"/>
  <path class="cls-5" d="m288.1 55.9 0.3-0.3"/>
  <path class="cls-5" d="m288.4 56"/>
  <path class="cls-5" d="m288.4 56"/>
  <path class="cls-5" d="m288.4 56"/>
  <path class="cls-5" d="m288.4 56"/>
  <path class="cls-5" d="m288.4 56"/>
  <path class="cls-5" d="m288.4 56"/>
  <path class="cls-5" d="m288.4 56"/>
  <path class="cls-5" d="m288.4 56"/>
  <path class="cls-5" d="m288.4 56"/>
  <path class="cls-5" d="m288.4 56"/>
  <path class="cls-5" d="m288.4 56"/>
  <path class="cls-5" d="m288.4 56"/>
  <path class="cls-5" d="m288.4 56"/>
  <path class="cls-5" d="m288.4 56"/>
  <path class="cls-5" d="m279.9 55.9"/>
  <path class="cls-5" d="m281.9 55.4c-0.2 1.1-2 1.7-2.4 0.7"/>
  <path class="cls-5" d="m279.1 51.9-0.2 1"/>
  <path class="cls-5" d="m282.9 51.9-0.3 1"/>
  <path class="cls-5" d="m279.1 54.4-0.9 0.1 0.2-1"/>
  <path class="cls-6" d="m264.4 60.6c-1.3 0.8 0.7 2.9 2.2 2.5l-0.5 2.5c0.4 1.5 1.4 3.4 2.9 3.8"/>
  <path class="cls-6" d="m265.1 61.5c-2 0-4.1 4.4-0.5 4.9l2-2.5"/>
  <path class="cls-5" d="m263.6 68 5.1-11 1.2-0.4 0.5 0.8-6 11-0.8-0.4z"/>
  <line class="cls-5" x1="269.1" x2="270.1" y1="57.9" y2="58.5"/>
  <path class="cls-6" d="m265.1 63 1.4 0.6"/>
  <path class="cls-6" d="m264.6 64.4 1.5 0.6"/>
  <path class="cls-6" d="m263.9 65.9 1.5 0.6"/>
  <path class="cls-4" d="m300.4 62.9c4-0.3 8.2 2.7 7.2 9"/>
  <path class="cls-9" d="m319.6 64.9-0.2 1.7"/>
  <path class="cls-9" d="m316 64c0.4 1.6-0.4 4-1.1 4.5"/>
  <path class="cls-9" d="m318.6 68.6c-0.2 1.5-1.9 2.8-2.4 2.5"/>
  <path class="cls-9" d="m316.5 74.4 0.5-0.3"/>
  <path class="cls-2" d="m303.4 78.1 4 1-3.4 1.4"/>
  <path class="cls-9" d="m299.4 80.6c1.2-0.6 3.6-1 5-1.2"/>
  <path class="cls-8" d="m293.6 85c-0.7 0.9-2.1 1.5-3.2 1.4"/>
  <path class="cls-8" d="m298.4 85h1l0.3-0.5"/>
  <path class="cls-8" d="m292.9 89.6c-1.3 0-1.3-0.1 0 0 1.4 0 2.7-0.5 3.4-0.9"/>
  <path class="cls-7" d="m307.7 75c5.9 0.6 7 8-0.2 11.4-2.6 1.5-4.6 2.1-6.1 2"/>
  <path class="cls-6" d="m301.1 88.1c4 0 11.1-3.6 10.9-8.1"/>
  <path class="cls-6" d="m308.4 80.6-1.7 1.9"/>
  <path class="cls-7" d="m305.4 76.5"/>
  <path class="cls-1" d="m300.6 76.4c1.4 0 2.5 0.6 2.9 1.1"/>
  <path class="cls-6" d="m304.5 74c1.2-5.6-1.8-7.9-4.6-8"/>
  <path class="cls-5" d="m296.6 82.4v-0.8l-0.7-0.2-0.3 0.7 0.6 0.8h0.8l0.4-0.3-0.8-0.2z"/>
  <path class="cls-8" d="m298.2 81.9"/>
  <path class="cls-8" d="m298.2 81.9"/>
  <path class="cls-9" d="m297.7 83-0.2 0.6h0.6v-0.6l-0.2-0.1"/>
  <path class="cls-8" d="m297.6 82.1v-0.6l-0.5-0.1-0.5 0.3 0.5 0.8 0.5-0.1 0.3-0.3"/>
  <path class="cls-5" d="m296.9 80.6-0.7 0.3 0.4 0.6"/>
  <path class="cls-5" d="m296.2 82.6-0.2 0.5 0.7 0.3"/>
  <path class="cls-6" d="m304.5 73.9"/>
  <line class="cls-8" x1="304.6" x2="304.1" y1="83.6" y2="83.9"/>
  <path class="cls-4" d="m314.4 38.1 0.2 1.3 1.6 0.5-1.3 0.7-0.3 1.4-0.9-1.5-1.3-0.1 1.2-0.8 0.1-1 0.7-0.5z"/>
  <circle class="cls-4" cx="283.7" cy="87" r="5.9"/>
  <polygon class="cls-1" points="283.9 89.5 282.2 88.6 280.5 89.5 280.9 87.6 279.5 86.4 281.4 86.1 282.2 84.4 283 86.1 285 86.4 283.6 87.6"/>
  <path class="cls-6" d="m276.1 24.4c4.6-0.3 9.8 4.5 7 13.1"/>
  <path class="cls-6" d="m282.6 35.4-0.5 2.2 4-2"/>
  <path class="cls-4" d="m266.4 32.9c1-2.8 5.8-4.4 10.2-1"/>
  <polyline class="cls-9" points="275.7 28.6 276.9 32 273.7 32.4"/>
  <path class="cls-1" d="m247.1 33.1c1 0.9 1.6 0.5 1.6 0.5 0.8-2.5 3.5-3.1 4.3-1.5"/>
  <path class="cls-1" d="m255.2 34c1.3-0.1 6.3-0.1 7.8-0.1"/>
  <line class="cls-1" x1="256" x2="256.9" y1="29.4" y2="30.6"/>
  <line class="cls-1" x1="259" x2="259" y1="28" y2="29"/>
  <line class="cls-1" x1="261.9" x2="261.2" y1="29.4" y2="30.4"/>
  <path class="cls-6" d="m291.9 28.6 6.5 4.9-0.5-7.5c-2.2-0.1-4.5 1-6 2.6z"/>
  <path class="cls-8" d="m291.5 29.1 5.6 2.9-0.5-5.6c-2-0.3-4 1.1-5.1 2.7z"/>
  <path class="cls-4" d="m291.6 41.6 6.6-5.5-6.7-4.5c-1.5 3-1.5 7 0.1 10z"/>
  <path class="cls-8" d="m292.2 41.5 5.2-5.6-5.7-3.3c-1.5 2.5-1.3 6.5 0.5 8.9z"/>
  <path class="cls-2" d="m295.5 43.9c3.1 1.5 7.9 0.2 10.7-1.5l-6.2-6-5 6.5 0.5 1z"/>
  <path class="cls-4" d="m297.5 43.4c2.6 0 5.4-0.5 7.4-1.8l-4.7-4.2-4 5.6 1.3 0.4z"/>
  <path class="cls-6" d="m307.4 41.1c1.6-2.5 2.1-6.1 0.7-9.1l-7.6 2.9 6.9 6.2z"/>
  <path class="cls-3" d="m307 40.4c1.4-2.4 1.4-5 0.5-7.5l-5.9 2.1 5.4 5.4z"/>
  <path class="cls-7" d="m307.4 30.1c-1.8-3-4.5-4.7-7.9-4.7l0.7 8.2 7.2-3.5z"/>
  <path class="cls-1" d="m306.5 30c-1.4-2.1-3.5-3.8-6.1-3.9l0.2 6.5 5.9-2.6z"/>
  <path class="cls-8" d="m311.1 62.4-0.4 1-0.7 0.5 1 0.6 0.6-1-0.5-1.1z"/>
  <path class="cls-4" d="m308 45.4-0.3 1-0.5 0.5 0.9 0.5 0.5-0.8-0.6-1.2z"/>
  <path class="cls-8" d="m231 38 0.6 0.5-0.1 0.5 0.7-0.1-0.1-0.9-0.6-0.1"/>
  <path class="cls-8" d="m183.1 35.9 0.6 0.6 0.5 0.4 0.3-0.9-0.5-0.5-0.9 0.4z"/>
  <path class="cls-8" d="m184.4 35.1 0.1 0.9 0.9-0.1 0.1-0.5-0.5-0.4-0.6 0.1z"/>
  <path class="cls-4" d="m295.9 49.1 0.7 0.9"/>
  <path class="cls-4" d="m297.1 52c0.4 2.6-0.5 4.4-0.5 4.4l-0.2 0.2 0.7-0.6-0.7 0.6 0.7-0.6-0.1 0.1 0.1-0.1"/>
  <path class="cls-9" d="m301.6 57.5 12.9 0.9"/>
  <path class="cls-1" d="m316.5 53.4-0.4 4.1"/>
  <path class="cls-1" d="m312.7 47-0.6 0.1-1.2 10.9 2.2 0.1 2-11.2-0.4-0.2-2 0.3z"/>
  <path class="cls-8" d="m305.1 50.1-0.9 6.9 2.4 0.5 0.9-6.1-2.4-1.3z"/>
  <path class="cls-8" d="m302.2 51.9-0.6 5.1 1.9-0.1 0.6-4.9-1.9-0.1z"/>
  <path class="cls-8" d="m308.1 52.1-0.5 5.5h2.3l0.7-5.5h-2.5z"/>
  <path class="cls-9" d="m228.7 23.4h8"/>
  <path class="cls-6" d="m228.7 28.5h11.7"/>
  <line class="cls-9" x1="228.6" x2="238.2" y1="33.4" y2="33.5"/>
  <polyline class="cls-5" points="222.5 23 223.5 23.9 226 21.4"/>
  <polyline class="cls-1" points="222.4 28.5 223.6 29.5 226 26.9"/>
  <polyline class="cls-6" points="222.1 33.6 223.4 35.1 226.1 32"/>
</svg>
