<svg viewBox="0 0 24 24" xmlns="http://www.w3.org/2000/svg">
  <defs>
    <linearGradient id="asana-grad" x1="0%" y1="0%" x2="100%" y2="100%">
      <stop offset="0%" stop-color="#9d34da" />
      <stop offset="100%" stop-color="#62218a" />
    </linearGradient>
  </defs>
  <title>Asana</title>
  <path d="M18.78 12.653c-2.882 0-5.22 2.336-5.22 5.22s2.338 5.22 5.22 5.22 5.22-2.34 5.22-5.22-2.336-5.22-5.22-5.22zm-13.56 0c-2.88 0-5.22 2.336-5.22 5.22s2.34 5.22 5.22 5.22 5.22-2.34 5.22-5.22-2.34-5.22-5.22-5.22zm6.78-7.433c-2.882 0-5.22 2.336-5.22 5.22s2.338 5.22 5.22 5.22c2.88 0 5.22-2.336 5.22-5.22s-2.34-5.22-5.22-5.22z" fill="url(#asana-grad)"/>
</svg>
