<svg width="76" height="14" viewBox="0 0 76 14" fill="none" xmlns="http://www.w3.org/2000/svg">
<path d="M62.1714 0.238175C63.098 0.293583 64.0719 0.237422 65.0039 0.25256C65.5197 0.260965 66.0736 0.25486 66.5852 0.220612C67.1023 2.27034 67.7779 4.33475 68.3046 6.38824C68.4627 7.00501 68.579 7.60434 68.8015 8.20459C68.9655 7.36598 70.7238 0.608553 71.0049 0.313822C71.1128 0.200831 74.6828 0.259794 75.1689 0.225964C74.9388 1.16795 74.4101 2.58548 74.0967 3.51274C73.8223 4.32455 73.4835 5.53859 73.1793 6.29332L71.0258 12.7495C70.5288 12.7044 69.8189 12.721 69.3081 12.7209L66.5271 12.7226C66.1 11.4514 65.7686 10.1812 65.4055 8.89391C65.0487 7.62989 64.6534 6.33455 64.3212 5.06593C64.0974 6.18631 63.6783 7.56875 63.3645 8.67705C62.9914 9.99564 62.6232 11.4718 62.1501 12.7404C61.6201 12.699 60.9215 12.717 60.3822 12.717C59.4669 12.7134 58.5516 12.7179 57.6363 12.7303C57.3556 11.7082 56.9026 10.5118 56.5658 9.48764L54.7503 3.92318C54.4934 3.16331 54.2412 2.40198 53.9931 1.63919C53.8664 1.25158 53.6476 0.642927 53.5752 0.258456C54.8557 0.265105 56.1366 0.258833 57.4171 0.239639L57.6079 0.232989C57.7815 0.342008 57.8806 0.704232 57.9354 0.904664C58.5985 3.33569 59.3239 5.76282 59.9463 8.20367C60.363 6.36725 60.9436 4.48048 61.4377 2.65607C61.5272 2.32671 62.0434 0.487951 62.1714 0.238175Z" fill="#537D2B"/>
<path d="M18.8355 0.0243055C18.8971 0.0212528 18.9586 0.0186185 19.0202 0.0164022C20.4912 -0.036748 21.6742 0.197054 22.7817 1.22723L22.7765 0.224403C23.3881 0.27358 24.1018 0.258358 24.7205 0.258776C25.4249 0.259278 26.1897 0.270235 26.8885 0.219385L26.8856 8.57554L26.8839 11.1023C26.884 11.6078 26.869 12.2861 26.9265 12.7727C25.6756 12.718 24.0452 12.7459 22.7831 12.7715C22.7738 12.4552 22.782 12.0988 22.7831 11.7791C22.6521 11.9014 22.4518 12.0365 22.3017 12.1438C21.7891 12.5672 20.7902 12.9366 20.1279 13.0031C17.2817 13.289 14.6434 11.5832 13.616 8.96499C12.0256 4.91165 14.4668 0.536529 18.8355 0.0243055ZM20.2961 9.25884C21.7995 9.12042 22.9089 7.79422 22.779 6.29059C22.6492 4.78695 21.3289 3.67042 19.824 3.79157C18.3068 3.91372 17.1787 5.24661 17.3097 6.76254C17.4406 8.27843 18.7804 9.39839 20.2961 9.25884Z" fill="#7064C6"/>
<path d="M46.6409 0.0344354C48.7049 -0.14078 50.8175 0.487236 52.1959 2.08463C53.5776 3.68557 53.8675 5.60303 53.7173 7.65464L48.5158 7.64055C47.2437 7.63892 45.9247 7.66184 44.6588 7.6441C45.2608 9.94094 48.1996 10.3167 49.9398 9.07176C50.1753 8.90327 50.3669 8.71338 50.6117 8.54766C50.9718 8.79309 51.601 9.36343 51.9717 9.66343C52.2155 9.85019 52.8673 10.3053 52.9091 10.5378C52.8916 10.6933 52.8209 10.7938 52.7192 10.9081C51.6445 12.1139 49.6826 12.9247 48.1042 13.0347C46.2786 13.1408 44.2192 12.5897 42.8316 11.381C40.2095 9.09706 39.9941 4.71708 42.2601 2.1157C43.3357 0.880614 45.0115 0.139899 46.6409 0.0344354ZM44.6831 5.20083C45.2905 5.10917 46.9195 5.14969 47.58 5.15136C48.341 5.15341 49.2052 5.13518 49.9574 5.16165C49.7696 4.63993 49.6202 4.14975 49.1827 3.77594C48.5585 3.24243 47.7792 3.13429 46.9902 3.16118C45.6005 3.3706 45.1491 3.90996 44.6831 5.20083Z" fill="#2C7E88"/>
<path d="M7.01299 0.0280859C7.0483 0.0237369 7.08369 0.0201822 7.11916 0.0174222C8.40783 -0.0782146 9.85981 0.210578 10.8402 1.11509C12.8016 2.92458 12.4771 5.23316 12.51 7.58983C12.5323 9.19049 12.4334 11.2406 12.5407 12.7669C11.1469 12.7561 9.75309 12.7557 8.35926 12.7657C8.315 10.4775 8.40427 8.17365 8.33901 5.88489C8.32947 5.45818 8.05651 4.48981 7.6996 4.23222C7.00082 3.72798 5.39519 3.62009 4.7997 4.32735C4.00165 5.19879 4.2155 7.05632 4.19588 8.19932C4.17007 9.70283 4.16739 11.2652 4.22115 12.7657C2.82016 12.7545 1.41914 12.7545 0.0181554 12.7658C-0.00978898 12.4351 0.0108348 11.7985 0.0120061 11.4496L0.0160221 9.03016C0.0171098 6.12521 0.0517473 3.13271 0 0.234414C1.28214 0.28171 2.88898 0.27046 4.17212 0.228852C4.18429 0.663755 4.18923 0.9648 4.15865 1.39841C4.24441 1.29641 4.3315 1.19555 4.41994 1.09586C5.03317 0.405239 6.11241 0.0817797 7.01299 0.0280859Z" fill="#C25055"/>
<path d="M33.7763 0.0299258L33.7891 0.0292143C35.8686 -0.0866622 37.5368 0.313658 39.1185 1.73378C39.4046 1.99075 39.9049 2.42419 39.9267 2.8131C39.6958 3.16675 37.6949 4.80177 37.3134 5.06748C37.0753 5.07467 36.6516 4.4771 36.4365 4.33492C34.3638 2.95134 31.5803 4.18442 31.7796 6.83921C31.8967 8.39909 33.3546 9.40505 34.8655 9.27801C35.9797 9.18434 36.5215 8.70026 37.2033 7.86775C37.4794 8.02423 38.6922 9.07252 39.0289 9.34918C39.3431 9.62271 39.7418 9.89026 40.0107 10.1913C39.9513 10.3593 39.9078 10.4772 39.7949 10.616C37.4012 13.5598 32.9043 13.8452 29.9738 11.5568C27.189 9.38205 26.7376 5.1972 28.9531 2.48244C30.1833 0.975045 31.8676 0.230483 33.7763 0.0299258Z" fill="#7064C6"/>
</svg>
